<mxfile host="app.diagrams.net" modified="2024-07-18T08:54:11.813Z" agent="Mozilla/5.0 (Windows NT 10.0; Win64; x64) AppleWebKit/537.36 (KHTML, like Gecko) Chrome/126.0.0.0 Safari/537.36" etag="68cfJAO255MahgTXrP5L" version="24.7.1" type="github">
  <diagram id="C5RBs43oDa-KdzZeNtuy" name="Page-1">
    <mxGraphModel dx="1195" dy="650" grid="1" gridSize="10" guides="1" tooltips="1" connect="1" arrows="1" fold="1" page="1" pageScale="1" pageWidth="827" pageHeight="1169" math="0" shadow="0">
      <root>
        <mxCell id="WIyWlLk6GJQsqaUBKTNV-0" />
        <mxCell id="WIyWlLk6GJQsqaUBKTNV-1" parent="WIyWlLk6GJQsqaUBKTNV-0" />
        <mxCell id="WIyWlLk6GJQsqaUBKTNV-2" value="" style="rounded=0;html=1;jettySize=auto;orthogonalLoop=1;fontSize=11;endArrow=block;endFill=0;endSize=8;strokeWidth=1;shadow=0;labelBackgroundColor=none;edgeStyle=orthogonalEdgeStyle;" parent="WIyWlLk6GJQsqaUBKTNV-1" source="WIyWlLk6GJQsqaUBKTNV-3" edge="1">
          <mxGeometry relative="1" as="geometry">
            <mxPoint x="400" y="130" as="targetPoint" />
          </mxGeometry>
        </mxCell>
        <mxCell id="WIyWlLk6GJQsqaUBKTNV-3" value="Graha &quot;X&quot;" style="rounded=1;whiteSpace=wrap;html=1;fontSize=12;glass=0;strokeWidth=1;shadow=0;" parent="WIyWlLk6GJQsqaUBKTNV-1" vertex="1">
          <mxGeometry x="340" y="60" width="120" height="40" as="geometry" />
        </mxCell>
        <mxCell id="94dIZ5HQVLKkKVLcG0mk-1" value="Own Star" style="ellipse;whiteSpace=wrap;html=1;" vertex="1" parent="WIyWlLk6GJQsqaUBKTNV-1">
          <mxGeometry x="160" y="130" width="120" height="50" as="geometry" />
        </mxCell>
        <mxCell id="94dIZ5HQVLKkKVLcG0mk-2" value="Star Parivarthana" style="ellipse;whiteSpace=wrap;html=1;" vertex="1" parent="WIyWlLk6GJQsqaUBKTNV-1">
          <mxGeometry x="510" y="130" width="120" height="50" as="geometry" />
        </mxCell>
        <mxCell id="94dIZ5HQVLKkKVLcG0mk-4" value="X&#39;s Sign Lord" style="shape=delay;whiteSpace=wrap;html=1;" vertex="1" parent="WIyWlLk6GJQsqaUBKTNV-1">
          <mxGeometry x="170" y="200" width="100" height="40" as="geometry" />
        </mxCell>
        <mxCell id="94dIZ5HQVLKkKVLcG0mk-5" value="X&#39;s Star Lord&#39;s Sign Lord" style="strokeWidth=2;html=1;shape=mxgraph.flowchart.display;whiteSpace=wrap;" vertex="1" parent="WIyWlLk6GJQsqaUBKTNV-1">
          <mxGeometry x="475" y="210" width="190" height="60" as="geometry" />
        </mxCell>
        <mxCell id="94dIZ5HQVLKkKVLcG0mk-6" value="" style="endArrow=classic;html=1;rounded=0;exitX=0.5;exitY=1;exitDx=0;exitDy=0;" edge="1" parent="WIyWlLk6GJQsqaUBKTNV-1" source="94dIZ5HQVLKkKVLcG0mk-1" target="94dIZ5HQVLKkKVLcG0mk-4">
          <mxGeometry width="50" height="50" relative="1" as="geometry">
            <mxPoint x="390" y="410" as="sourcePoint" />
            <mxPoint x="440" y="360" as="targetPoint" />
          </mxGeometry>
        </mxCell>
        <mxCell id="94dIZ5HQVLKkKVLcG0mk-7" value="" style="endArrow=classic;html=1;rounded=0;exitX=0.5;exitY=1;exitDx=0;exitDy=0;entryX=0.5;entryY=0;entryDx=0;entryDy=0;entryPerimeter=0;" edge="1" parent="WIyWlLk6GJQsqaUBKTNV-1" source="94dIZ5HQVLKkKVLcG0mk-2" target="94dIZ5HQVLKkKVLcG0mk-5">
          <mxGeometry width="50" height="50" relative="1" as="geometry">
            <mxPoint x="390" y="410" as="sourcePoint" />
            <mxPoint x="440" y="360" as="targetPoint" />
          </mxGeometry>
        </mxCell>
        <mxCell id="94dIZ5HQVLKkKVLcG0mk-9" value="" style="endArrow=classic;html=1;rounded=0;entryX=1;entryY=0.5;entryDx=0;entryDy=0;" edge="1" parent="WIyWlLk6GJQsqaUBKTNV-1" target="94dIZ5HQVLKkKVLcG0mk-1">
          <mxGeometry width="50" height="50" relative="1" as="geometry">
            <mxPoint x="400" y="130" as="sourcePoint" />
            <mxPoint x="440" y="360" as="targetPoint" />
          </mxGeometry>
        </mxCell>
        <mxCell id="94dIZ5HQVLKkKVLcG0mk-10" value="" style="endArrow=classic;html=1;rounded=0;entryX=0;entryY=0.5;entryDx=0;entryDy=0;" edge="1" parent="WIyWlLk6GJQsqaUBKTNV-1" target="94dIZ5HQVLKkKVLcG0mk-2">
          <mxGeometry width="50" height="50" relative="1" as="geometry">
            <mxPoint x="400" y="130" as="sourcePoint" />
            <mxPoint x="430" y="180" as="targetPoint" />
          </mxGeometry>
        </mxCell>
        <mxCell id="94dIZ5HQVLKkKVLcG0mk-11" value="" style="endArrow=classic;html=1;rounded=0;entryX=0.5;entryY=0;entryDx=0;entryDy=0;" edge="1" parent="WIyWlLk6GJQsqaUBKTNV-1" target="94dIZ5HQVLKkKVLcG0mk-13">
          <mxGeometry width="50" height="50" relative="1" as="geometry">
            <mxPoint x="400" y="130" as="sourcePoint" />
            <mxPoint x="400" y="300" as="targetPoint" />
          </mxGeometry>
        </mxCell>
        <mxCell id="94dIZ5HQVLKkKVLcG0mk-13" value="Graha &quot;A&quot;" style="shape=ext;double=1;rounded=0;whiteSpace=wrap;html=1;" vertex="1" parent="WIyWlLk6GJQsqaUBKTNV-1">
          <mxGeometry x="245" y="280" width="310" height="30" as="geometry" />
        </mxCell>
        <mxCell id="94dIZ5HQVLKkKVLcG0mk-15" value="" style="endArrow=classic;html=1;rounded=0;exitX=1;exitY=0.5;exitDx=0;exitDy=0;entryX=0.25;entryY=0;entryDx=0;entryDy=0;" edge="1" parent="WIyWlLk6GJQsqaUBKTNV-1" source="94dIZ5HQVLKkKVLcG0mk-4" target="94dIZ5HQVLKkKVLcG0mk-13">
          <mxGeometry width="50" height="50" relative="1" as="geometry">
            <mxPoint x="430" y="340" as="sourcePoint" />
            <mxPoint x="480" y="290" as="targetPoint" />
          </mxGeometry>
        </mxCell>
        <mxCell id="94dIZ5HQVLKkKVLcG0mk-16" value="" style="endArrow=classic;html=1;rounded=0;exitX=0;exitY=0.5;exitDx=0;exitDy=0;exitPerimeter=0;entryX=0.75;entryY=0;entryDx=0;entryDy=0;" edge="1" parent="WIyWlLk6GJQsqaUBKTNV-1" source="94dIZ5HQVLKkKVLcG0mk-5" target="94dIZ5HQVLKkKVLcG0mk-13">
          <mxGeometry width="50" height="50" relative="1" as="geometry">
            <mxPoint x="430" y="340" as="sourcePoint" />
            <mxPoint x="480" y="290" as="targetPoint" />
          </mxGeometry>
        </mxCell>
        <mxCell id="94dIZ5HQVLKkKVLcG0mk-18" value="is graha &quot;A&quot; physically Retro ?" style="strokeWidth=2;html=1;shape=mxgraph.flowchart.decision;whiteSpace=wrap;" vertex="1" parent="WIyWlLk6GJQsqaUBKTNV-1">
          <mxGeometry x="20" y="350" width="230" height="70" as="geometry" />
        </mxCell>
        <mxCell id="94dIZ5HQVLKkKVLcG0mk-35" value="" style="endArrow=classic;html=1;rounded=0;exitX=0;exitY=0.5;exitDx=0;exitDy=0;entryX=0.5;entryY=0;entryDx=0;entryDy=0;entryPerimeter=0;" edge="1" parent="WIyWlLk6GJQsqaUBKTNV-1" source="94dIZ5HQVLKkKVLcG0mk-13" target="94dIZ5HQVLKkKVLcG0mk-18">
          <mxGeometry width="50" height="50" relative="1" as="geometry">
            <mxPoint x="430" y="240" as="sourcePoint" />
            <mxPoint x="480" y="190" as="targetPoint" />
            <Array as="points">
              <mxPoint x="110" y="320" />
            </Array>
          </mxGeometry>
        </mxCell>
        <mxCell id="94dIZ5HQVLKkKVLcG0mk-36" value="" style="endArrow=classic;html=1;rounded=0;exitX=0.231;exitY=1.028;exitDx=0;exitDy=0;exitPerimeter=0;" edge="1" parent="WIyWlLk6GJQsqaUBKTNV-1" source="94dIZ5HQVLKkKVLcG0mk-13" target="94dIZ5HQVLKkKVLcG0mk-48">
          <mxGeometry width="50" height="50" relative="1" as="geometry">
            <mxPoint x="430" y="240" as="sourcePoint" />
            <mxPoint x="505" y="355" as="targetPoint" />
            <Array as="points">
              <mxPoint x="400" y="330" />
            </Array>
          </mxGeometry>
        </mxCell>
        <mxCell id="94dIZ5HQVLKkKVLcG0mk-37" value="" style="endArrow=classic;html=1;rounded=0;exitX=1;exitY=0.5;exitDx=0;exitDy=0;exitPerimeter=0;entryX=0.75;entryY=0;entryDx=0;entryDy=0;" edge="1" parent="WIyWlLk6GJQsqaUBKTNV-1" source="94dIZ5HQVLKkKVLcG0mk-18" target="94dIZ5HQVLKkKVLcG0mk-39">
          <mxGeometry width="50" height="50" relative="1" as="geometry">
            <mxPoint x="430" y="410" as="sourcePoint" />
            <mxPoint x="310" y="440" as="targetPoint" />
          </mxGeometry>
        </mxCell>
        <mxCell id="94dIZ5HQVLKkKVLcG0mk-44" value="No ( + )" style="edgeLabel;html=1;align=center;verticalAlign=middle;resizable=0;points=[];" vertex="1" connectable="0" parent="94dIZ5HQVLKkKVLcG0mk-37">
          <mxGeometry x="-0.1987" relative="1" as="geometry">
            <mxPoint as="offset" />
          </mxGeometry>
        </mxCell>
        <mxCell id="94dIZ5HQVLKkKVLcG0mk-38" value="" style="endArrow=classic;html=1;rounded=0;exitX=0;exitY=0.5;exitDx=0;exitDy=0;exitPerimeter=0;entryX=0.25;entryY=0;entryDx=0;entryDy=0;" edge="1" parent="WIyWlLk6GJQsqaUBKTNV-1" source="94dIZ5HQVLKkKVLcG0mk-18" target="94dIZ5HQVLKkKVLcG0mk-39">
          <mxGeometry width="50" height="50" relative="1" as="geometry">
            <mxPoint x="430" y="410" as="sourcePoint" />
            <mxPoint x="290" y="470" as="targetPoint" />
          </mxGeometry>
        </mxCell>
        <mxCell id="94dIZ5HQVLKkKVLcG0mk-43" value="Yes ( - )" style="edgeLabel;html=1;align=center;verticalAlign=middle;resizable=0;points=[];" vertex="1" connectable="0" parent="94dIZ5HQVLKkKVLcG0mk-38">
          <mxGeometry x="-0.4072" y="-2" relative="1" as="geometry">
            <mxPoint x="14" y="16" as="offset" />
          </mxGeometry>
        </mxCell>
        <mxCell id="94dIZ5HQVLKkKVLcG0mk-39" value="Process Math&lt;br&gt;&lt;br&gt;as Result 1" style="shape=process;whiteSpace=wrap;html=1;backgroundOutline=1;" vertex="1" parent="WIyWlLk6GJQsqaUBKTNV-1">
          <mxGeometry x="60" y="480" width="120" height="60" as="geometry" />
        </mxCell>
        <mxCell id="94dIZ5HQVLKkKVLcG0mk-41" value="" style="endArrow=classic;html=1;rounded=0;entryX=1;entryY=0.5;entryDx=0;entryDy=0;exitX=0.25;exitY=1;exitDx=0;exitDy=0;" edge="1" parent="WIyWlLk6GJQsqaUBKTNV-1" source="94dIZ5HQVLKkKVLcG0mk-48" target="94dIZ5HQVLKkKVLcG0mk-39">
          <mxGeometry width="50" height="50" relative="1" as="geometry">
            <mxPoint x="505" y="415" as="sourcePoint" />
            <mxPoint x="480" y="360" as="targetPoint" />
          </mxGeometry>
        </mxCell>
        <mxCell id="94dIZ5HQVLKkKVLcG0mk-46" value="Yes ( - )" style="edgeLabel;html=1;align=center;verticalAlign=middle;resizable=0;points=[];" vertex="1" connectable="0" parent="94dIZ5HQVLKkKVLcG0mk-41">
          <mxGeometry x="-0.1124" y="3" relative="1" as="geometry">
            <mxPoint as="offset" />
          </mxGeometry>
        </mxCell>
        <mxCell id="94dIZ5HQVLKkKVLcG0mk-42" value="" style="endArrow=classic;html=1;rounded=0;exitX=0.75;exitY=1;exitDx=0;exitDy=0;entryX=1;entryY=0.75;entryDx=0;entryDy=0;" edge="1" parent="WIyWlLk6GJQsqaUBKTNV-1" source="94dIZ5HQVLKkKVLcG0mk-48" target="94dIZ5HQVLKkKVLcG0mk-39">
          <mxGeometry width="50" height="50" relative="1" as="geometry">
            <mxPoint x="730" y="385" as="sourcePoint" />
            <mxPoint x="480" y="360" as="targetPoint" />
          </mxGeometry>
        </mxCell>
        <mxCell id="94dIZ5HQVLKkKVLcG0mk-47" value="No ( + )" style="edgeLabel;html=1;align=center;verticalAlign=middle;resizable=0;points=[];" vertex="1" connectable="0" parent="94dIZ5HQVLKkKVLcG0mk-42">
          <mxGeometry x="0.0564" y="2" relative="1" as="geometry">
            <mxPoint x="31" y="-25" as="offset" />
          </mxGeometry>
        </mxCell>
        <mxCell id="94dIZ5HQVLKkKVLcG0mk-48" value="is graha &quot;A&quot;&amp;nbsp; &lt;b&gt;star Lord&lt;/b&gt;&lt;br&gt;&amp;nbsp;matches with&lt;br&gt;&amp;nbsp;&lt;b&gt;any &lt;/b&gt;node&#39;s &lt;b&gt;star Lord&lt;/b&gt;&amp;nbsp; &amp;nbsp;" style="shape=parallelogram;perimeter=parallelogramPerimeter;whiteSpace=wrap;html=1;fixedSize=1;" vertex="1" parent="WIyWlLk6GJQsqaUBKTNV-1">
          <mxGeometry x="290" y="355" width="220" height="60" as="geometry" />
        </mxCell>
        <mxCell id="94dIZ5HQVLKkKVLcG0mk-50" value="is graha &quot;A&quot; is is in Own Star ?" style="rhombus;whiteSpace=wrap;html=1;rotation=-10;" vertex="1" parent="WIyWlLk6GJQsqaUBKTNV-1">
          <mxGeometry x="540" y="320" width="235" height="60" as="geometry" />
        </mxCell>
        <mxCell id="94dIZ5HQVLKkKVLcG0mk-51" value="" style="endArrow=classic;html=1;rounded=0;exitX=1;exitY=0.5;exitDx=0;exitDy=0;entryX=0;entryY=0;entryDx=0;entryDy=0;" edge="1" parent="WIyWlLk6GJQsqaUBKTNV-1" source="94dIZ5HQVLKkKVLcG0mk-13" target="94dIZ5HQVLKkKVLcG0mk-50">
          <mxGeometry width="50" height="50" relative="1" as="geometry">
            <mxPoint x="640" y="320" as="sourcePoint" />
            <mxPoint x="480" y="360" as="targetPoint" />
          </mxGeometry>
        </mxCell>
        <mxCell id="94dIZ5HQVLKkKVLcG0mk-53" value="Graha &quot;A&quot; &#39;s Star Lord" style="ellipse;whiteSpace=wrap;html=1;" vertex="1" parent="WIyWlLk6GJQsqaUBKTNV-1">
          <mxGeometry x="665" y="410" width="150" height="40" as="geometry" />
        </mxCell>
        <mxCell id="94dIZ5HQVLKkKVLcG0mk-54" value="" style="shape=parallelogram;perimeter=parallelogramPerimeter;whiteSpace=wrap;html=1;fixedSize=1;" vertex="1" parent="WIyWlLk6GJQsqaUBKTNV-1">
          <mxGeometry x="490" y="490" width="120" height="60" as="geometry" />
        </mxCell>
      </root>
    </mxGraphModel>
  </diagram>
</mxfile>
